<mxfile host="Electron" modified="2024-04-26T13:01:34.831Z" agent="Mozilla/5.0 (Windows NT 10.0; Win64; x64) AppleWebKit/537.36 (KHTML, like Gecko) draw.io/24.2.5 Chrome/120.0.6099.109 Electron/28.1.0 Safari/537.36" etag="4PJSJfEqifGmroyJS_ZX" version="24.2.5" type="device">
  <diagram name="Page-1" id="6tVsTGWEchmhwFQs7Yjm">
    <mxGraphModel dx="1404" dy="814" grid="1" gridSize="10" guides="1" tooltips="1" connect="1" arrows="1" fold="1" page="1" pageScale="1" pageWidth="1169" pageHeight="827" math="0" shadow="0">
      <root>
        <mxCell id="0" />
        <mxCell id="1" parent="0" />
        <mxCell id="zcpEn1Wpx6uN2-foA3Gd-9" style="edgeStyle=orthogonalEdgeStyle;rounded=0;orthogonalLoop=1;jettySize=auto;html=1;exitX=0.5;exitY=1;exitDx=0;exitDy=0;entryX=0.5;entryY=0;entryDx=0;entryDy=0;endArrow=none;endFill=0;shadow=1;" edge="1" parent="1" source="zcpEn1Wpx6uN2-foA3Gd-1" target="zcpEn1Wpx6uN2-foA3Gd-8">
          <mxGeometry relative="1" as="geometry" />
        </mxCell>
        <mxCell id="zcpEn1Wpx6uN2-foA3Gd-1" value="&lt;div style=&quot;font-family: Consolas, &amp;quot;Courier New&amp;quot;, monospace; font-size: 10px; line-height: 19px; white-space: pre;&quot;&gt;&lt;div style=&quot;line-height: 19px; font-size: 10px;&quot;&gt;&lt;div style=&quot;font-size: 10px; line-height: 19px;&quot;&gt;&lt;span style=&quot;font-size: 10px;&quot;&gt;XmVaCreateManagedFrame&lt;/span&gt;&lt;/div&gt;&lt;div style=&quot;font-size: 10px; line-height: 19px;&quot;&gt;size:5; groupSize:17; y:4; x:4.5;&lt;span style=&quot;font-size: 10px;&quot;&gt;&lt;br&gt;&lt;/span&gt;&lt;/div&gt;&lt;/div&gt;&lt;/div&gt;" style="rounded=0;whiteSpace=wrap;html=1;strokeColor=default;fontColor=default;labelBackgroundColor=default;fontSize=10;shadow=1;" vertex="1" parent="1">
          <mxGeometry x="220" y="200" width="200" height="40" as="geometry" />
        </mxCell>
        <mxCell id="zcpEn1Wpx6uN2-foA3Gd-5" style="edgeStyle=orthogonalEdgeStyle;rounded=0;orthogonalLoop=1;jettySize=auto;html=1;exitX=0.5;exitY=1;exitDx=0;exitDy=0;entryX=0.5;entryY=0;entryDx=0;entryDy=0;strokeColor=default;endArrow=none;endFill=0;shadow=1;" edge="1" parent="1" source="zcpEn1Wpx6uN2-foA3Gd-2" target="zcpEn1Wpx6uN2-foA3Gd-4">
          <mxGeometry relative="1" as="geometry" />
        </mxCell>
        <mxCell id="zcpEn1Wpx6uN2-foA3Gd-2" value="&lt;div style=&quot;font-size: 10px; line-height: 19px; white-space: pre;&quot;&gt;&lt;span style=&quot;font-size: 10px;&quot;&gt;&lt;b&gt;applicationShellWidgetClass&lt;/b&gt;&lt;/span&gt;&lt;/div&gt;&lt;div style=&quot;font-size: 10px; line-height: 19px; white-space: pre;&quot;&gt;&lt;b&gt;size:5; groupSize:23; y:0; x:10.5;&lt;/b&gt;&lt;span style=&quot;font-size: 10px;&quot;&gt;&lt;br&gt;&lt;/span&gt;&lt;/div&gt;" style="rounded=0;whiteSpace=wrap;html=1;labelBackgroundColor=default;fontSize=10;shadow=1;fontFamily=Helvetica;" vertex="1" parent="1">
          <mxGeometry x="460" y="40" width="200" height="40" as="geometry" />
        </mxCell>
        <mxCell id="zcpEn1Wpx6uN2-foA3Gd-6" style="edgeStyle=orthogonalEdgeStyle;rounded=0;orthogonalLoop=1;jettySize=auto;html=1;exitX=0.5;exitY=1;exitDx=0;exitDy=0;entryX=0.5;entryY=0;entryDx=0;entryDy=0;endArrow=none;endFill=0;shadow=1;" edge="1" parent="1" source="zcpEn1Wpx6uN2-foA3Gd-4" target="zcpEn1Wpx6uN2-foA3Gd-1">
          <mxGeometry relative="1" as="geometry" />
        </mxCell>
        <mxCell id="zcpEn1Wpx6uN2-foA3Gd-26" style="edgeStyle=orthogonalEdgeStyle;rounded=0;orthogonalLoop=1;jettySize=auto;html=1;exitX=0.5;exitY=1;exitDx=0;exitDy=0;entryX=0.5;entryY=0;entryDx=0;entryDy=0;endArrow=none;endFill=0;shadow=1;" edge="1" parent="1" source="zcpEn1Wpx6uN2-foA3Gd-4" target="zcpEn1Wpx6uN2-foA3Gd-23">
          <mxGeometry relative="1" as="geometry" />
        </mxCell>
        <mxCell id="zcpEn1Wpx6uN2-foA3Gd-4" value="&lt;div style=&quot;font-size: 10px; line-height: 19px; white-space: pre;&quot;&gt;&lt;div style=&quot;line-height: 19px; font-size: 10px;&quot;&gt;&lt;span style=&quot;font-size: 10px;&quot;&gt;XmVaCreateMainWindow&lt;/span&gt;&lt;/div&gt;&lt;div style=&quot;line-height: 19px; font-size: 10px;&quot;&gt;size:5; groupSize:23; y:2; x:10.5;&lt;/div&gt;&lt;/div&gt;" style="rounded=0;whiteSpace=wrap;html=1;strokeColor=default;fontColor=default;labelBackgroundColor=default;fontSize=10;shadow=1;fontFamily=Garamond;" vertex="1" parent="1">
          <mxGeometry x="460" y="120" width="200" height="40" as="geometry" />
        </mxCell>
        <mxCell id="zcpEn1Wpx6uN2-foA3Gd-13" style="edgeStyle=orthogonalEdgeStyle;rounded=0;orthogonalLoop=1;jettySize=auto;html=1;exitX=0.5;exitY=1;exitDx=0;exitDy=0;entryX=0.5;entryY=0;entryDx=0;entryDy=0;endArrow=none;endFill=0;shadow=1;" edge="1" parent="1" source="zcpEn1Wpx6uN2-foA3Gd-7" target="zcpEn1Wpx6uN2-foA3Gd-12">
          <mxGeometry relative="1" as="geometry" />
        </mxCell>
        <mxCell id="zcpEn1Wpx6uN2-foA3Gd-20" style="edgeStyle=orthogonalEdgeStyle;rounded=0;orthogonalLoop=1;jettySize=auto;html=1;exitX=0.5;exitY=1;exitDx=0;exitDy=0;endArrow=none;endFill=0;shadow=1;" edge="1" parent="1" source="zcpEn1Wpx6uN2-foA3Gd-7" target="zcpEn1Wpx6uN2-foA3Gd-19">
          <mxGeometry relative="1" as="geometry" />
        </mxCell>
        <mxCell id="zcpEn1Wpx6uN2-foA3Gd-7" value="&lt;div style=&quot;font-family: Consolas, &amp;quot;Courier New&amp;quot;, monospace; font-size: 10px; line-height: 19px; white-space: pre;&quot;&gt;&lt;div style=&quot;line-height: 19px; font-size: 10px;&quot;&gt;&lt;div style=&quot;font-size: 10px; line-height: 19px;&quot;&gt;&lt;div style=&quot;line-height: 19px; font-size: 10px;&quot;&gt;&lt;span style=&quot;font-size: 10px;&quot;&gt;XmVaCreateManagedPanedWindow&lt;/span&gt;&lt;/div&gt;&lt;div style=&quot;line-height: 19px; font-size: 10px;&quot;&gt;size:5; groupSize:17; y:8; x:4.5; &lt;br&gt;&lt;/div&gt;&lt;/div&gt;&lt;/div&gt;&lt;/div&gt;" style="rounded=0;whiteSpace=wrap;html=1;strokeColor=default;fontColor=default;labelBackgroundColor=default;fontSize=10;shadow=1;" vertex="1" parent="1">
          <mxGeometry x="220" y="360" width="200" height="40" as="geometry" />
        </mxCell>
        <mxCell id="zcpEn1Wpx6uN2-foA3Gd-10" style="edgeStyle=orthogonalEdgeStyle;rounded=0;orthogonalLoop=1;jettySize=auto;html=1;exitX=0.5;exitY=1;exitDx=0;exitDy=0;entryX=0.5;entryY=0;entryDx=0;entryDy=0;endArrow=none;endFill=0;shadow=1;" edge="1" parent="1" source="zcpEn1Wpx6uN2-foA3Gd-8" target="zcpEn1Wpx6uN2-foA3Gd-7">
          <mxGeometry relative="1" as="geometry" />
        </mxCell>
        <mxCell id="zcpEn1Wpx6uN2-foA3Gd-8" value="&lt;div style=&quot;font-family: Consolas, &amp;quot;Courier New&amp;quot;, monospace; font-size: 10px; line-height: 19px; white-space: pre;&quot;&gt;&lt;div style=&quot;line-height: 19px; font-size: 10px;&quot;&gt;&lt;div style=&quot;font-size: 10px; line-height: 19px;&quot;&gt;&lt;div style=&quot;line-height: 19px; font-size: 10px;&quot;&gt;&lt;span style=&quot;font-size: 10px;&quot;&gt;XmVaCreateManagedPanedWindow&lt;/span&gt;&lt;/div&gt;&lt;div style=&quot;line-height: 19px; font-size: 10px;&quot;&gt;size:5;groupSize:17; y:6; x:4.5;&lt;span style=&quot;font-size: 10px;&quot;&gt;&lt;br&gt;&lt;/span&gt;&lt;/div&gt;&lt;/div&gt;&lt;/div&gt;&lt;/div&gt;" style="rounded=0;whiteSpace=wrap;html=1;strokeColor=default;fontColor=default;labelBackgroundColor=default;fontSize=10;shadow=1;" vertex="1" parent="1">
          <mxGeometry x="220" y="280" width="200" height="40" as="geometry" />
        </mxCell>
        <mxCell id="zcpEn1Wpx6uN2-foA3Gd-11" value="&lt;div style=&quot;font-family: Consolas, &amp;quot;Courier New&amp;quot;, monospace; font-size: 10px; line-height: 19px; white-space: pre;&quot;&gt;&lt;div style=&quot;line-height: 19px; font-size: 10px;&quot;&gt;&lt;div style=&quot;font-size: 10px; line-height: 19px;&quot;&gt;&lt;div style=&quot;line-height: 19px; font-size: 10px;&quot;&gt;&lt;div style=&quot;font-size: 10px; line-height: 19px;&quot;&gt;&lt;div style=&quot;line-height: 19px; font-size: 10px;&quot;&gt;&lt;span style=&quot;font-size: 10px;&quot;&gt;XmVaCreateManagedList&lt;/span&gt;&lt;/div&gt;&lt;div style=&quot;line-height: 19px; font-size: 10px;&quot;&gt;size:5; groupSize:5; y:12; x:0;&lt;span style=&quot;font-size: 10px;&quot;&gt;&lt;br&gt;&lt;/span&gt;&lt;/div&gt;&lt;/div&gt;&lt;/div&gt;&lt;/div&gt;&lt;/div&gt;&lt;/div&gt;" style="rounded=0;whiteSpace=wrap;html=1;strokeColor=default;fontColor=default;labelBackgroundColor=default;fontSize=10;shadow=1;" vertex="1" parent="1">
          <mxGeometry x="40" y="520" width="200" height="40" as="geometry" />
        </mxCell>
        <mxCell id="zcpEn1Wpx6uN2-foA3Gd-14" style="edgeStyle=orthogonalEdgeStyle;rounded=0;orthogonalLoop=1;jettySize=auto;html=1;exitX=0.5;exitY=1;exitDx=0;exitDy=0;entryX=0.5;entryY=0;entryDx=0;entryDy=0;endArrow=none;endFill=0;shadow=1;" edge="1" parent="1" source="zcpEn1Wpx6uN2-foA3Gd-12" target="zcpEn1Wpx6uN2-foA3Gd-11">
          <mxGeometry relative="1" as="geometry" />
        </mxCell>
        <mxCell id="zcpEn1Wpx6uN2-foA3Gd-12" value="&lt;div style=&quot;font-family: Consolas, &amp;quot;Courier New&amp;quot;, monospace; font-size: 10px; line-height: 19px; white-space: pre;&quot;&gt;&lt;div style=&quot;line-height: 19px; font-size: 10px;&quot;&gt;&lt;div style=&quot;font-size: 10px; line-height: 19px;&quot;&gt;&lt;div style=&quot;line-height: 19px; font-size: 10px;&quot;&gt;&lt;div style=&quot;font-size: 10px; line-height: 19px;&quot;&gt;&lt;span style=&quot;font-size: 10px;&quot;&gt;XmVaCreateScrolledWindow&lt;/span&gt;&lt;/div&gt;&lt;div style=&quot;font-size: 10px; line-height: 19px;&quot;&gt;size:5; groupSize:5; y:10; x:0;&lt;/div&gt;&lt;/div&gt;&lt;/div&gt;&lt;/div&gt;&lt;/div&gt;" style="rounded=0;whiteSpace=wrap;html=1;strokeColor=default;fontColor=default;labelBackgroundColor=default;fontSize=10;shadow=1;" vertex="1" parent="1">
          <mxGeometry x="40" y="440" width="200" height="40" as="geometry" />
        </mxCell>
        <mxCell id="zcpEn1Wpx6uN2-foA3Gd-15" value="&lt;div style=&quot;font-family: Consolas, &amp;quot;Courier New&amp;quot;, monospace; font-size: 10px; line-height: 19px; white-space: pre;&quot;&gt;&lt;div style=&quot;line-height: 19px; font-size: 10px;&quot;&gt;&lt;div style=&quot;font-size: 10px; line-height: 19px;&quot;&gt;&lt;div style=&quot;line-height: 19px; font-size: 10px;&quot;&gt;&lt;div style=&quot;font-size: 10px; line-height: 19px;&quot;&gt;&lt;div style=&quot;line-height: 19px; font-size: 10px;&quot;&gt;&lt;span style=&quot;font-size: 10px;&quot;&gt;XmVaCreateManagedScrollBar&lt;/span&gt;&lt;/div&gt;&lt;div style=&quot;line-height: 19px; font-size: 10px;&quot;&gt;size:5; groupSize:5; y:12; x:6;&lt;/div&gt;&lt;/div&gt;&lt;/div&gt;&lt;/div&gt;&lt;/div&gt;&lt;/div&gt;" style="rounded=0;whiteSpace=wrap;html=1;strokeColor=default;fontColor=default;labelBackgroundColor=default;fontSize=10;shadow=1;" vertex="1" parent="1">
          <mxGeometry x="280" y="520" width="200" height="40" as="geometry" />
        </mxCell>
        <mxCell id="zcpEn1Wpx6uN2-foA3Gd-16" value="&lt;div style=&quot;font-family: Consolas, &amp;quot;Courier New&amp;quot;, monospace; font-size: 10px; line-height: 19px; white-space: pre;&quot;&gt;&lt;div style=&quot;line-height: 19px; font-size: 10px;&quot;&gt;&lt;div style=&quot;font-size: 10px; line-height: 19px;&quot;&gt;&lt;div style=&quot;line-height: 19px; font-size: 10px;&quot;&gt;&lt;div style=&quot;font-size: 10px; line-height: 19px;&quot;&gt;&lt;div style=&quot;line-height: 19px; font-size: 10px;&quot;&gt;&lt;span style=&quot;font-size: 10px;&quot;&gt;XmVaCreateManagedDrawingArea&lt;/span&gt;&lt;/div&gt;&lt;div style=&quot;line-height: 19px; font-size: 10px;&quot;&gt;size:5; groupSize:5; y:12; x:12;&lt;br&gt;&lt;/div&gt;&lt;/div&gt;&lt;/div&gt;&lt;/div&gt;&lt;/div&gt;&lt;/div&gt;" style="rounded=0;whiteSpace=wrap;html=1;strokeColor=default;fontColor=default;labelBackgroundColor=default;fontSize=10;imageWidth=24;imageHeight=24;shadow=1;" vertex="1" parent="1">
          <mxGeometry x="520" y="520" width="200" height="40" as="geometry" />
        </mxCell>
        <mxCell id="zcpEn1Wpx6uN2-foA3Gd-21" style="edgeStyle=orthogonalEdgeStyle;rounded=0;orthogonalLoop=1;jettySize=auto;html=1;exitX=0.5;exitY=1;exitDx=0;exitDy=0;endArrow=none;endFill=0;shadow=1;" edge="1" parent="1" source="zcpEn1Wpx6uN2-foA3Gd-19" target="zcpEn1Wpx6uN2-foA3Gd-15">
          <mxGeometry relative="1" as="geometry" />
        </mxCell>
        <mxCell id="zcpEn1Wpx6uN2-foA3Gd-22" style="edgeStyle=orthogonalEdgeStyle;rounded=0;orthogonalLoop=1;jettySize=auto;html=1;exitX=0.5;exitY=1;exitDx=0;exitDy=0;entryX=0.5;entryY=0;entryDx=0;entryDy=0;endArrow=none;endFill=0;shadow=1;" edge="1" parent="1" source="zcpEn1Wpx6uN2-foA3Gd-19" target="zcpEn1Wpx6uN2-foA3Gd-16">
          <mxGeometry relative="1" as="geometry" />
        </mxCell>
        <mxCell id="zcpEn1Wpx6uN2-foA3Gd-19" value="&lt;div style=&quot;font-family: Consolas, &amp;quot;Courier New&amp;quot;, monospace; font-size: 10px; line-height: 19px; white-space: pre;&quot;&gt;&lt;div style=&quot;line-height: 19px; font-size: 10px;&quot;&gt;&lt;div style=&quot;font-size: 10px; line-height: 19px;&quot;&gt;&lt;div style=&quot;line-height: 19px; font-size: 10px;&quot;&gt;&lt;div style=&quot;font-size: 10px; line-height: 19px;&quot;&gt;&lt;div style=&quot;line-height: 19px; font-size: 10px;&quot;&gt;&lt;div style=&quot;font-size: 10px; line-height: 19px;&quot;&gt;&lt;span style=&quot;font-size: 10px;&quot;&gt;XmVaCreateManagedScrolledWindow&lt;/span&gt;&lt;/div&gt;&lt;div style=&quot;font-size: 10px; line-height: 19px;&quot;&gt;size:5; groupSize:11; y:10; x:9;&lt;br&gt;&lt;/div&gt;&lt;/div&gt;&lt;/div&gt;&lt;/div&gt;&lt;/div&gt;&lt;/div&gt;&lt;/div&gt;" style="rounded=0;whiteSpace=wrap;html=1;strokeColor=default;fontColor=default;labelBackgroundColor=default;fontSize=10;shadow=1;" vertex="1" parent="1">
          <mxGeometry x="400" y="440" width="200" height="40" as="geometry" />
        </mxCell>
        <mxCell id="zcpEn1Wpx6uN2-foA3Gd-25" style="edgeStyle=orthogonalEdgeStyle;rounded=0;orthogonalLoop=1;jettySize=auto;html=1;exitX=0.5;exitY=1;exitDx=0;exitDy=0;entryX=0.5;entryY=0;entryDx=0;entryDy=0;endArrow=none;endFill=0;shadow=1;" edge="1" parent="1" source="zcpEn1Wpx6uN2-foA3Gd-23" target="zcpEn1Wpx6uN2-foA3Gd-24">
          <mxGeometry relative="1" as="geometry" />
        </mxCell>
        <mxCell id="zcpEn1Wpx6uN2-foA3Gd-23" value="&lt;div style=&quot;font-family: Consolas, &amp;quot;Courier New&amp;quot;, monospace; font-size: 10px; line-height: 19px; white-space: pre;&quot;&gt;&lt;div style=&quot;line-height: 19px; font-size: 10px;&quot;&gt;&lt;div style=&quot;font-size: 10px; line-height: 19px;&quot;&gt;&lt;div style=&quot;font-size: 10px; line-height: 19px;&quot;&gt;&lt;span style=&quot;font-size: 10px;&quot;&gt;XmVaCreateManagedFrame&lt;/span&gt;&lt;/div&gt;&lt;div style=&quot;font-size: 10px; line-height: 19px;&quot;&gt;size:5; groupSize:5; y:4; 18;&lt;span style=&quot;font-size: 10px;&quot;&gt;&lt;br&gt;&lt;/span&gt;&lt;/div&gt;&lt;/div&gt;&lt;/div&gt;&lt;/div&gt;" style="rounded=0;whiteSpace=wrap;html=1;strokeColor=default;fontColor=default;labelBackgroundColor=default;fontSize=10;shadow=1;" vertex="1" parent="1">
          <mxGeometry x="760" y="200" width="200" height="40" as="geometry" />
        </mxCell>
        <mxCell id="zcpEn1Wpx6uN2-foA3Gd-24" value="&lt;div style=&quot;font-family: Consolas, &amp;quot;Courier New&amp;quot;, monospace; font-size: 10px; line-height: 19px; white-space: pre;&quot;&gt;&lt;div style=&quot;line-height: 19px; font-size: 10px;&quot;&gt;&lt;div style=&quot;font-size: 10px; line-height: 19px;&quot;&gt;&lt;div style=&quot;font-size: 10px; line-height: 19px;&quot;&gt;&lt;div style=&quot;line-height: 19px; font-size: 10px;&quot;&gt;&lt;span style=&quot;font-size: 10px;&quot;&gt;XmVaCreateManagedLabelGadget&lt;/span&gt;&lt;/div&gt;&lt;div style=&quot;line-height: 19px; font-size: 10px;&quot;&gt;size:5; groupSize:5; y:6; x:18;&lt;span style=&quot;font-size: 10px;&quot;&gt;&lt;br&gt;&lt;/span&gt;&lt;/div&gt;&lt;/div&gt;&lt;/div&gt;&lt;/div&gt;&lt;/div&gt;" style="rounded=0;whiteSpace=wrap;html=1;strokeColor=default;fontColor=default;labelBackgroundColor=default;fontSize=10;shadow=1;" vertex="1" parent="1">
          <mxGeometry x="760" y="280" width="200" height="40" as="geometry" />
        </mxCell>
        <mxCell id="zcpEn1Wpx6uN2-foA3Gd-28" value="&lt;div style=&quot;font-family: Consolas, &amp;quot;Courier New&amp;quot;, monospace; font-size: 10px; line-height: 19px; white-space: pre;&quot;&gt;&lt;div style=&quot;line-height: 19px; font-size: 10px;&quot;&gt;&lt;div style=&quot;font-size: 10px; line-height: 19px;&quot;&gt;&lt;span style=&quot;font-size: 10px;&quot;&gt;XmVaCreateManagedFrame&lt;/span&gt;&lt;/div&gt;&lt;/div&gt;&lt;/div&gt;" style="rounded=0;whiteSpace=wrap;html=1;strokeColor=default;fontColor=default;labelBackgroundColor=default;fontSize=10;" vertex="1" parent="1">
          <mxGeometry x="120" y="1080" width="200" height="40" as="geometry" />
        </mxCell>
        <mxCell id="zcpEn1Wpx6uN2-foA3Gd-30" value="&lt;div style=&quot;font-family: Consolas, &amp;quot;Courier New&amp;quot;, monospace; font-size: 10px; line-height: 19px; white-space: pre;&quot;&gt;&lt;span style=&quot;font-size: 10px;&quot;&gt;applicationShellWidgetClass&lt;/span&gt;&lt;/div&gt;" style="rounded=0;whiteSpace=wrap;html=1;strokeColor=default;fontColor=default;labelBackgroundColor=default;fontSize=10;" vertex="1" parent="1">
          <mxGeometry x="40" y="840" width="200" height="40" as="geometry" />
        </mxCell>
        <mxCell id="zcpEn1Wpx6uN2-foA3Gd-33" value="&lt;div style=&quot;font-family: Consolas, &amp;quot;Courier New&amp;quot;, monospace; font-size: 10px; line-height: 19px; white-space: pre;&quot;&gt;&lt;div style=&quot;line-height: 19px; font-size: 10px;&quot;&gt;&lt;span style=&quot;font-size: 10px;&quot;&gt;XmVaCreateMainWindow&lt;/span&gt;&lt;/div&gt;&lt;/div&gt;" style="rounded=0;whiteSpace=wrap;html=1;strokeColor=default;fontColor=default;labelBackgroundColor=default;fontSize=10;" vertex="1" parent="1">
          <mxGeometry x="80" y="900" width="210" height="40" as="geometry" />
        </mxCell>
        <mxCell id="zcpEn1Wpx6uN2-foA3Gd-36" value="&lt;div style=&quot;font-family: Consolas, &amp;quot;Courier New&amp;quot;, monospace; font-size: 10px; line-height: 19px; white-space: pre;&quot;&gt;&lt;div style=&quot;line-height: 19px; font-size: 10px;&quot;&gt;&lt;div style=&quot;font-size: 10px; line-height: 19px;&quot;&gt;&lt;div style=&quot;line-height: 19px; font-size: 10px;&quot;&gt;&lt;span style=&quot;font-size: 10px;&quot;&gt;XmVaCreateManagedPanedWindow&lt;/span&gt;&lt;/div&gt;&lt;/div&gt;&lt;/div&gt;&lt;/div&gt;" style="rounded=0;whiteSpace=wrap;html=1;strokeColor=default;fontColor=default;labelBackgroundColor=default;fontSize=10;" vertex="1" parent="1">
          <mxGeometry x="200" y="1201" width="200" height="40" as="geometry" />
        </mxCell>
        <mxCell id="zcpEn1Wpx6uN2-foA3Gd-38" value="&lt;div style=&quot;font-family: Consolas, &amp;quot;Courier New&amp;quot;, monospace; font-size: 10px; line-height: 19px; white-space: pre;&quot;&gt;&lt;div style=&quot;line-height: 19px; font-size: 10px;&quot;&gt;&lt;div style=&quot;font-size: 10px; line-height: 19px;&quot;&gt;&lt;div style=&quot;line-height: 19px; font-size: 10px;&quot;&gt;&lt;span style=&quot;font-size: 10px;&quot;&gt;XmVaCreateManagedPanedWindow&lt;/span&gt;&lt;/div&gt;&lt;/div&gt;&lt;/div&gt;&lt;/div&gt;" style="rounded=0;whiteSpace=wrap;html=1;strokeColor=default;fontColor=default;labelBackgroundColor=default;fontSize=10;" vertex="1" parent="1">
          <mxGeometry x="160" y="1140" width="200" height="40" as="geometry" />
        </mxCell>
        <mxCell id="zcpEn1Wpx6uN2-foA3Gd-39" value="&lt;div style=&quot;font-family: Consolas, &amp;quot;Courier New&amp;quot;, monospace; font-size: 10px; line-height: 19px; white-space: pre;&quot;&gt;&lt;div style=&quot;line-height: 19px; font-size: 10px;&quot;&gt;&lt;div style=&quot;font-size: 10px; line-height: 19px;&quot;&gt;&lt;div style=&quot;line-height: 19px; font-size: 10px;&quot;&gt;&lt;div style=&quot;font-size: 10px; line-height: 19px;&quot;&gt;&lt;div style=&quot;line-height: 19px; font-size: 10px;&quot;&gt;&lt;span style=&quot;font-size: 10px;&quot;&gt;XmVaCreateManagedList&lt;/span&gt;&lt;/div&gt;&lt;/div&gt;&lt;/div&gt;&lt;/div&gt;&lt;/div&gt;&lt;/div&gt;" style="rounded=0;whiteSpace=wrap;html=1;strokeColor=default;fontColor=default;labelBackgroundColor=default;fontSize=10;" vertex="1" parent="1">
          <mxGeometry x="280" y="1320" width="200" height="40" as="geometry" />
        </mxCell>
        <mxCell id="zcpEn1Wpx6uN2-foA3Gd-41" value="&lt;div style=&quot;font-family: Consolas, &amp;quot;Courier New&amp;quot;, monospace; font-size: 10px; line-height: 19px; white-space: pre;&quot;&gt;&lt;div style=&quot;line-height: 19px; font-size: 10px;&quot;&gt;&lt;div style=&quot;font-size: 10px; line-height: 19px;&quot;&gt;&lt;div style=&quot;line-height: 19px; font-size: 10px;&quot;&gt;&lt;div style=&quot;font-size: 10px; line-height: 19px;&quot;&gt;&lt;span style=&quot;font-size: 10px;&quot;&gt;XmVaCreateScrolledWindow&lt;/span&gt;&lt;/div&gt;&lt;/div&gt;&lt;/div&gt;&lt;/div&gt;&lt;/div&gt;" style="rounded=0;whiteSpace=wrap;html=1;strokeColor=default;fontColor=default;labelBackgroundColor=default;fontSize=10;" vertex="1" parent="1">
          <mxGeometry x="240" y="1260" width="200" height="40" as="geometry" />
        </mxCell>
        <mxCell id="zcpEn1Wpx6uN2-foA3Gd-42" value="&lt;div style=&quot;font-family: Consolas, &amp;quot;Courier New&amp;quot;, monospace; font-size: 10px; line-height: 19px; white-space: pre;&quot;&gt;&lt;div style=&quot;line-height: 19px; font-size: 10px;&quot;&gt;&lt;div style=&quot;font-size: 10px; line-height: 19px;&quot;&gt;&lt;div style=&quot;line-height: 19px; font-size: 10px;&quot;&gt;&lt;div style=&quot;font-size: 10px; line-height: 19px;&quot;&gt;&lt;div style=&quot;line-height: 19px; font-size: 10px;&quot;&gt;&lt;span style=&quot;font-size: 10px;&quot;&gt;XmVaCreateManagedScrollBar&lt;/span&gt;&lt;/div&gt;&lt;/div&gt;&lt;/div&gt;&lt;/div&gt;&lt;/div&gt;&lt;/div&gt;" style="rounded=0;whiteSpace=wrap;html=1;strokeColor=default;fontColor=default;labelBackgroundColor=default;fontSize=10;" vertex="1" parent="1">
          <mxGeometry x="280" y="1440" width="200" height="40" as="geometry" />
        </mxCell>
        <mxCell id="zcpEn1Wpx6uN2-foA3Gd-43" value="&lt;div style=&quot;font-family: Consolas, &amp;quot;Courier New&amp;quot;, monospace; font-size: 10px; line-height: 19px; white-space: pre;&quot;&gt;&lt;div style=&quot;line-height: 19px; font-size: 10px;&quot;&gt;&lt;div style=&quot;font-size: 10px; line-height: 19px;&quot;&gt;&lt;div style=&quot;line-height: 19px; font-size: 10px;&quot;&gt;&lt;div style=&quot;font-size: 10px; line-height: 19px;&quot;&gt;&lt;div style=&quot;line-height: 19px; font-size: 10px;&quot;&gt;&lt;span style=&quot;font-size: 10px;&quot;&gt;XmVaCreateManagedDrawingArea&lt;/span&gt;&lt;/div&gt;&lt;/div&gt;&lt;/div&gt;&lt;/div&gt;&lt;/div&gt;&lt;/div&gt;" style="rounded=0;whiteSpace=wrap;html=1;strokeColor=default;fontColor=default;labelBackgroundColor=default;fontSize=10;" vertex="1" parent="1">
          <mxGeometry x="280" y="1500" width="200" height="40" as="geometry" />
        </mxCell>
        <mxCell id="zcpEn1Wpx6uN2-foA3Gd-46" value="&lt;div style=&quot;font-family: Consolas, &amp;quot;Courier New&amp;quot;, monospace; font-size: 10px; line-height: 19px; white-space: pre;&quot;&gt;&lt;div style=&quot;line-height: 19px; font-size: 10px;&quot;&gt;&lt;div style=&quot;font-size: 10px; line-height: 19px;&quot;&gt;&lt;div style=&quot;line-height: 19px; font-size: 10px;&quot;&gt;&lt;div style=&quot;font-size: 10px; line-height: 19px;&quot;&gt;&lt;div style=&quot;line-height: 19px; font-size: 10px;&quot;&gt;&lt;div style=&quot;font-size: 10px; line-height: 19px;&quot;&gt;&lt;span style=&quot;font-size: 10px;&quot;&gt;XmVaCreateManagedScrolledWindow&lt;/span&gt;&lt;/div&gt;&lt;/div&gt;&lt;/div&gt;&lt;/div&gt;&lt;/div&gt;&lt;/div&gt;&lt;/div&gt;" style="rounded=0;whiteSpace=wrap;html=1;strokeColor=default;fontColor=default;labelBackgroundColor=default;fontSize=10;" vertex="1" parent="1">
          <mxGeometry x="240" y="1380" width="200" height="40" as="geometry" />
        </mxCell>
        <mxCell id="zcpEn1Wpx6uN2-foA3Gd-48" value="&lt;div style=&quot;font-family: Consolas, &amp;quot;Courier New&amp;quot;, monospace; font-size: 10px; line-height: 19px; white-space: pre;&quot;&gt;&lt;div style=&quot;line-height: 19px; font-size: 10px;&quot;&gt;&lt;div style=&quot;font-size: 10px; line-height: 19px;&quot;&gt;&lt;div style=&quot;font-size: 10px; line-height: 19px;&quot;&gt;&lt;span style=&quot;font-size: 10px;&quot;&gt;XmVaCreateManagedFrame&lt;/span&gt;&lt;/div&gt;&lt;/div&gt;&lt;/div&gt;&lt;/div&gt;" style="rounded=0;whiteSpace=wrap;html=1;strokeColor=default;fontColor=default;labelBackgroundColor=default;fontSize=10;" vertex="1" parent="1">
          <mxGeometry x="120" y="960" width="200" height="40" as="geometry" />
        </mxCell>
        <mxCell id="zcpEn1Wpx6uN2-foA3Gd-49" value="&lt;div style=&quot;font-family: Consolas, &amp;quot;Courier New&amp;quot;, monospace; font-size: 10px; line-height: 19px; white-space: pre;&quot;&gt;&lt;div style=&quot;line-height: 19px; font-size: 10px;&quot;&gt;&lt;div style=&quot;font-size: 10px; line-height: 19px;&quot;&gt;&lt;div style=&quot;font-size: 10px; line-height: 19px;&quot;&gt;&lt;div style=&quot;line-height: 19px; font-size: 10px;&quot;&gt;&lt;span style=&quot;font-size: 10px;&quot;&gt;XmVaCreateManagedLabelGadget&lt;/span&gt;&lt;/div&gt;&lt;/div&gt;&lt;/div&gt;&lt;/div&gt;&lt;/div&gt;" style="rounded=0;whiteSpace=wrap;html=1;strokeColor=default;fontColor=default;labelBackgroundColor=default;fontSize=10;" vertex="1" parent="1">
          <mxGeometry x="160" y="1020" width="200" height="40" as="geometry" />
        </mxCell>
        <mxCell id="zcpEn1Wpx6uN2-foA3Gd-55" value="Space:&lt;div&gt;&lt;span style=&quot;white-space: pre;&quot;&gt;&#x9;&lt;/span&gt;Width &lt;span style=&quot;white-space: pre;&quot;&gt;&#x9;&lt;/span&gt;(1 unit)&lt;/div&gt;&lt;div&gt;&lt;span style=&quot;background-color: initial;&quot;&gt;&lt;span style=&quot;white-space: pre;&quot;&gt;&#x9;&lt;/span&gt;Height &lt;span style=&quot;white-space: pre;&quot;&gt;&#x9;&lt;/span&gt;(1 unit)&lt;/span&gt;&lt;/div&gt;&lt;div&gt;&lt;br&gt;&lt;div&gt;Total: (layout size)&lt;/div&gt;&lt;div&gt;&lt;span style=&quot;white-space: pre;&quot;&gt;&#x9;&lt;/span&gt;Width&lt;span style=&quot;white-space: pre;&quot;&gt;&#x9;&lt;/span&gt;(23 units)&lt;br&gt;&lt;/div&gt;&lt;div&gt;&lt;span style=&quot;white-space: pre;&quot;&gt;&#x9;&lt;/span&gt;Height&lt;span style=&quot;white-space: pre;&quot;&gt;&#x9;&lt;/span&gt;(13 units)&lt;br&gt;&lt;/div&gt;&lt;div&gt;&lt;br&gt;&lt;/div&gt;&lt;div&gt;Node:&lt;/div&gt;&lt;div&gt;&lt;span style=&quot;white-space: pre;&quot;&gt;&#x9;&lt;/span&gt;Width&amp;nbsp;&lt;span style=&quot;white-space: pre;&quot;&gt;&#x9;&lt;/span&gt;(5 units)&lt;br&gt;&lt;/div&gt;&lt;div&gt;&lt;span style=&quot;white-space: pre;&quot;&gt;&#x9;&lt;/span&gt;Height&lt;span style=&quot;white-space: pre;&quot;&gt;&#x9;&lt;/span&gt;(1 unit)&lt;br&gt;&lt;/div&gt;&lt;div&gt;&lt;br&gt;&lt;/div&gt;&lt;div&gt;Unit: (Grid 5x5)&lt;/div&gt;&lt;div&gt;&lt;span style=&quot;white-space: pre;&quot;&gt;&#x9;&lt;/span&gt;Width&lt;span style=&quot;white-space: pre;&quot;&gt;&#x9;&lt;/span&gt;(50px)&lt;br&gt;&lt;/div&gt;&lt;div&gt;&lt;span style=&quot;white-space: pre;&quot;&gt;&#x9;&lt;/span&gt;Height&lt;span style=&quot;white-space: pre;&quot;&gt;&#x9;&lt;/span&gt;(50px)&lt;br&gt;&lt;/div&gt;&lt;div&gt;&lt;br&gt;&lt;/div&gt;&lt;div&gt;Grid:&lt;/div&gt;&lt;div&gt;&lt;span style=&quot;white-space: pre;&quot;&gt;&#x9;&lt;/span&gt;Width&lt;span style=&quot;white-space: pre;&quot;&gt;&#x9;&lt;/span&gt;(10px)&lt;br&gt;&lt;/div&gt;&lt;div&gt;&lt;span style=&quot;white-space: pre;&quot;&gt;&#x9;&lt;/span&gt;Height&lt;span style=&quot;white-space: pre;&quot;&gt;&#x9;&lt;/span&gt;(10px)&lt;br&gt;&lt;/div&gt;&lt;div&gt;&lt;br&gt;&lt;/div&gt;&lt;div&gt;&lt;br&gt;&lt;/div&gt;&lt;div&gt;&lt;span style=&quot;white-space: pre;&quot;&gt;&#x9;&lt;/span&gt;&lt;br&gt;&lt;/div&gt;&lt;div&gt;&lt;br&gt;&lt;/div&gt;&lt;/div&gt;" style="rounded=0;whiteSpace=wrap;html=1;align=left;verticalAlign=top;shadow=1;fontFamily=Helvetica;" vertex="1" parent="1">
          <mxGeometry x="40" y="40" width="140" height="290" as="geometry" />
        </mxCell>
      </root>
    </mxGraphModel>
  </diagram>
</mxfile>
